<svg xmlns="http://www.w3.org/2000/svg" width="60" height="60" viewBox="0 0 256 256">
  <g id="Icons">
    <circle cx="97.83" cy="100.73" r="77.81" style="fill: none;stroke: #003c74;stroke-miterlimit: 10;stroke-width: 4px"/>
    <rect x="168.65" y="139.85" width="37.08" height="99.84" transform="translate(-79.36 187.95) rotate(-45)" style="fill: #003c74"/>
    <path d="M140.3,100a41.85,41.85,0,0,0-.64-7l8.68-8.79a52.69,52.69,0,0,0-4.05-9.39l-12.35.26a42,42,0,0,0-4.61-5.27l1.87-12.22a53.53,53.53,0,0,0-8.81-5.23l-9.87,7.5a30,30,0,0,0-3.38-.9c-1.15-.24-2.3-.46-3.45-.62L98,47.34a52.73,52.73,0,0,0-10.18.9L84.29,60.06a42.59,42.59,0,0,0-6.43,2.78l-11-5.55A53.66,53.66,0,0,0,59.12,64l4.06,11.67a42.72,42.72,0,0,0-3.59,6l-12.18,2c-.53,1.61-1,3.25-1.37,4.94s-.67,3.37-.9,5l10.15,7a42.06,42.06,0,0,0,.64,7l-8.69,8.77A53.66,53.66,0,0,0,51.3,126l12.39-.26a43.53,43.53,0,0,0,4.6,5.27l-1.91,12.21a52.43,52.43,0,0,0,8.8,5.22l9.88-7.48c1.12.35,2.23.66,3.38.9s2.3.45,3.45.62l5.67,11a52.07,52.07,0,0,0,10.2-.89l3.59-11.83a41.64,41.64,0,0,0,6.43-2.79l11.05,5.55a53,53,0,0,0,7.69-6.74l-4.06-11.68a42.06,42.06,0,0,0,3.59-6l12.2-2c.52-1.61,1-3.26,1.37-4.94a48.1,48.1,0,0,0,.9-5Zm-15.8,6.44a27.41,27.41,0,1,1-20.73-32.75l.06,0A27.41,27.41,0,0,1,124.5,106.41Z" style="fill: #009fe3"/>
  </g>
</svg>
